<svg width="24" height="22" viewBox="0 0 24 22" fill="none" xmlns="http://www.w3.org/2000/svg">
<path d="M20.5278 5.36127H2.63889C2.46945 5.36127 2.30694 5.29396 2.18713 5.17415C2.06731 5.05433 2 4.89183 2 4.72239C2 4.55294 2.06731 4.39044 2.18713 4.27062C2.30694 4.15081 2.46945 4.0835 2.63889 4.0835H20.5278C20.6972 4.0835 20.8597 4.15081 20.9795 4.27062C21.0994 4.39044 21.1667 4.55294 21.1667 4.72239C21.1667 4.89183 21.0994 5.05433 20.9795 5.17415C20.8597 5.29396 20.6972 5.36127 20.5278 5.36127Z" fill="url(#paint0_linear)"/>
<path d="M20.5278 11.6391H2.63889C2.46945 11.6391 2.30694 11.5718 2.18713 11.452C2.06731 11.3322 2 11.1697 2 11.0002C2 10.8308 2.06731 10.6683 2.18713 10.5485C2.30694 10.4286 2.46945 10.3613 2.63889 10.3613H20.5278C20.6972 10.3613 20.8597 10.4286 20.9795 10.5485C21.0994 10.6683 21.1667 10.8308 21.1667 11.0002C21.1667 11.1697 21.0994 11.3322 20.9795 11.452C20.8597 11.5718 20.6972 11.6391 20.5278 11.6391Z" fill="url(#paint1_linear)"/>
<path d="M20.5278 17.9169H2.63889C2.46945 17.9169 2.30694 17.8496 2.18713 17.7298C2.06731 17.61 2 17.4475 2 17.278C2 17.1086 2.06731 16.9461 2.18713 16.8263C2.30694 16.7065 2.46945 16.6392 2.63889 16.6392H20.5278C20.6972 16.6392 20.8597 16.7065 20.9795 16.8263C21.0994 16.9461 21.1667 17.1086 21.1667 17.278C21.1667 17.4475 21.0994 17.61 20.9795 17.7298C20.8597 17.8496 20.6972 17.9169 20.5278 17.9169Z" fill="url(#paint2_linear)"/>
<defs>
<linearGradient id="paint0_linear" x1="21.1667" y1="4.0835" x2="19.2535" y2="10.5031" gradientUnits="userSpaceOnUse">
<stop stop-color="#EFB467"/>
<stop offset="1" stop-color="#DE8667"/>
</linearGradient>
<linearGradient id="paint1_linear" x1="21.1667" y1="10.3613" x2="19.2535" y2="16.7809" gradientUnits="userSpaceOnUse">
<stop stop-color="#EFB467"/>
<stop offset="1" stop-color="#DE8667"/>
</linearGradient>
<linearGradient id="paint2_linear" x1="21.1667" y1="16.6392" x2="19.2535" y2="23.0587" gradientUnits="userSpaceOnUse">
<stop stop-color="#EFB467"/>
<stop offset="1" stop-color="#DE8667"/>
</linearGradient>
</defs>
</svg>
