<svg width="480" height="1506" viewBox="0 0 480 1506" fill="none" xmlns="http://www.w3.org/2000/svg">
<path fill-rule="evenodd" clip-rule="evenodd" d="M1167.75 336.671C1237.38 379.558 1309.27 434.196 1320.85 521.072C1332.39 607.55 1266.64 698.017 1227.79 786.887C1190.22 872.842 1175.33 978.827 1097.12 1032.92C1018.7 1087.15 927.593 1014.54 842.986 1053.02C715.21 1111.14 630.269 1301.23 500.822 1304.15C383.467 1306.79 347.38 1160.12 293.133 1065.39C237.256 967.822 136.914 869.601 181.241 746.1C227.518 617.165 409.958 590.129 502.44 482.228C580.338 391.344 562.943 223.214 668.423 177.698C776.834 130.918 848.324 259.277 946.607 290.568C1018.72 313.525 1104.9 297.957 1167.75 336.671Z" fill="url(#paint0_linear)"/>
<defs>
<linearGradient id="paint0_linear" x1="1487.03" y1="613.592" x2="566.83" y2="17.3533" gradientUnits="userSpaceOnUse">
<stop stop-color="#EFB467"/>
<stop offset="1" stop-color="#DE8667"/>
</linearGradient>
</defs>
</svg>
