<svg width="736" height="625" viewBox="0 0 736 625" fill="none" xmlns="http://www.w3.org/2000/svg">
<path fill-rule="evenodd" clip-rule="evenodd" d="M1264.26 211.024C1260.19 292.703 1246.92 382.012 1176.35 433.996C1106.11 485.742 995.167 471.677 898.572 480.419C805.147 488.875 705.085 526.852 620.018 484.347C534.732 441.732 554.503 326.916 480.037 271.291C367.576 187.284 160.073 204.362 95.1941 92.3105C36.3756 -9.27514 147.548 -111.521 204.451 -204.674C263.065 -300.628 300.838 -435.864 430.424 -456.477C565.711 -477.998 677.249 -331.114 816.348 -302.01C933.51 -277.495 1072.49 -373.692 1163.17 -303.158C1256.37 -230.665 1178.29 -106.204 1198.19 -4.99812C1212.79 69.2553 1267.92 137.293 1264.26 211.024Z" fill="url(#paint0_linear)"/>
<defs>
<linearGradient id="paint0_linear" x1="1175.27" y1="624.188" x2="1254.79" y2="-469.403" gradientUnits="userSpaceOnUse">
<stop stop-color="#EFB467"/>
<stop offset="1" stop-color="#DE8667"/>
</linearGradient>
</defs>
</svg>
